# xmcd
#
# Track frame offsets: 
#        150
#        13390
#        28737
#        49330
#        66102
#        84515
#        98307
#        116825
#        134645
#        152312
#        168410
#        181195
#
# Disc length: 2715 seconds
#
# Revision: 8
# Processed by: cddbd v1.5.2PL0 Copyright (c) Steve Scherf et al.
# Submitted via: ExactAudioCopy v0.99pb5
#
DISCID=980a990c
DTITLE=Patty Loveless - Classics
DYEAR=1999
DGENRE=Country
TTITLE0=Can't Get Enough
TTITLE1=You Can Feel Bad
TTITLE2=Lonely Too Long
TTITLE3=I Just Wanna Be Loved By You
TTITLE4=You Don't Even Know Who I Am
TTITLE5=Here I Am
TTITLE6=You Don't Seem To Miss Me
TTITLE7=Nothin' But The Wheel
TTITLE8=My Kind of woman, My Kind of Man
TTITLE9=Blame It On Your Heart
TTITLE10=I Try To Think About Elvis
TTITLE11=How Can I Help You Say Goodbye
EXTD=(c)1999 Sony Music Inc - EPIC\nupc 50997494346626\n
EXTT0=
EXTT1=
EXTT2=
EXTT3=
EXTT4=
EXTT5=
EXTT6=
EXTT7=
EXTT8=
EXTT9=
EXTT10=
EXTT11=
PLAYORDER=
